<svg width="19" height="15" viewBox="0 0 19 15" fill="none" xmlns="http://www.w3.org/2000/svg">
<mask id="path-1-outside-1_1_2099" maskUnits="userSpaceOnUse" x="0" y="0" width="19" height="15" fill="black">
<rect fill="white" width="19" height="15"/>
<path fill-rule="evenodd" clip-rule="evenodd" d="M7.90309 14C7.7724 14 7.65358 13.9552 7.55853 13.8655L1.14258 7.825C0.952474 7.64569 0.952474 7.35431 1.14258 7.175L7.55853 1.13448C7.74864 0.955172 8.05755 0.955172 8.24765 1.13448C8.43776 1.31379 8.43776 1.60517 8.24765 1.78448L2.61219 7.10002H17.4281C17.7439 7.10002 17.9999 7.356 17.9999 7.67177C17.9999 7.98754 17.7439 8.24353 17.4281 8.24353H2.97642L8.24765 13.2155C8.43776 13.3948 8.43776 13.6862 8.24765 13.8655C8.1526 13.9552 8.03379 14 7.90309 14Z"/>
</mask>
<path fill-rule="evenodd" clip-rule="evenodd" d="M7.90309 14C7.7724 14 7.65358 13.9552 7.55853 13.8655L1.14258 7.825C0.952474 7.64569 0.952474 7.35431 1.14258 7.175L7.55853 1.13448C7.74864 0.955172 8.05755 0.955172 8.24765 1.13448C8.43776 1.31379 8.43776 1.60517 8.24765 1.78448L2.61219 7.10002H17.4281C17.7439 7.10002 17.9999 7.356 17.9999 7.67177C17.9999 7.98754 17.7439 8.24353 17.4281 8.24353H2.97642L8.24765 13.2155C8.43776 13.3948 8.43776 13.6862 8.24765 13.8655C8.1526 13.9552 8.03379 14 7.90309 14Z" fill="black"/>
<path d="M7.55853 13.8655L7.97023 13.429L7.96982 13.4287L7.55853 13.8655ZM1.14258 7.825L0.730883 8.26147L0.731287 8.26185L1.14258 7.825ZM1.14258 7.175L0.731287 6.73815L0.730883 6.73853L1.14258 7.175ZM7.55853 1.13448L7.96982 1.57134L7.97023 1.57096L7.55853 1.13448ZM8.24765 1.13448L7.83596 1.57096L8.24765 1.13448ZM8.24765 1.78448L7.83596 1.34801L7.83596 1.34801L8.24765 1.78448ZM2.61219 7.10002L2.2005 6.66355L1.10165 7.70002H2.61219V7.10002ZM2.97642 8.24353V7.64353H1.46587L2.56472 8.68L2.97642 8.24353ZM8.24765 13.2155L8.65935 12.779H8.65935L8.24765 13.2155ZM8.24765 13.8655L8.65935 14.302L8.65935 14.302L8.24765 13.8655ZM7.14684 14.302C7.35874 14.5019 7.62706 14.6 7.90309 14.6V13.4C7.90701 13.4 7.9185 13.4008 7.93398 13.4068C7.94981 13.4129 7.96234 13.4216 7.97023 13.429L7.14684 14.302ZM0.731287 8.26185L7.14724 14.3024L7.96982 13.4287L1.55387 7.38815L0.731287 8.26185ZM0.730883 6.73853C0.289706 7.15466 0.289706 7.84534 0.730883 8.26147L1.55427 7.38853C1.58046 7.41323 1.6 7.45392 1.6 7.5C1.6 7.54608 1.58046 7.58677 1.55427 7.61147L0.730883 6.73853ZM7.14724 0.69763L0.731287 6.73815L1.55387 7.61185L7.96982 1.57134L7.14724 0.69763ZM8.65935 0.69801C8.23809 0.300663 7.5681 0.300663 7.14684 0.69801L7.97023 1.57096C7.94584 1.59396 7.9199 1.6 7.90309 1.6C7.88628 1.6 7.86035 1.59396 7.83596 1.57096L8.65935 0.69801ZM8.65935 2.22096C9.10053 1.80482 9.10053 1.11414 8.65935 0.69801L7.83596 1.57096C7.80977 1.54625 7.79023 1.50556 7.79023 1.45948C7.79023 1.41341 7.80977 1.37271 7.83596 1.34801L8.65935 2.22096ZM3.02389 7.53649L8.65935 2.22096L7.83596 1.34801L2.2005 6.66355L3.02389 7.53649ZM2.61219 7.70002H17.4281V6.50002H2.61219V7.70002ZM17.4281 7.70002C17.4125 7.70002 17.3999 7.68737 17.3999 7.67177H18.5999C18.5999 7.02463 18.0753 6.50002 17.4281 6.50002V7.70002ZM17.3999 7.67177C17.3999 7.65618 17.4125 7.64353 17.4281 7.64353V8.84353C18.0753 8.84353 18.5999 8.31891 18.5999 7.67177H17.3999ZM17.4281 7.64353H2.97642V8.84353H17.4281V7.64353ZM8.65935 12.779L3.38811 7.80705L2.56472 8.68L7.83596 13.652L8.65935 12.779ZM8.65935 14.302C9.10053 13.8859 9.10053 13.1952 8.65935 12.779L7.83596 13.652C7.80977 13.6273 7.79023 13.5866 7.79023 13.5405C7.79023 13.4944 7.80977 13.4537 7.83596 13.429L8.65935 14.302ZM7.90309 14.6C8.17913 14.6 8.44745 14.5019 8.65935 14.302L7.83596 13.429C7.84385 13.4216 7.85638 13.4129 7.87221 13.4068C7.88769 13.4008 7.89918 13.4 7.90309 13.4V14.6Z" fill="black" mask="url(#path-1-outside-1_1_2099)"/>
</svg>
