<svg width="14" height="19" viewBox="0 0 14 19" fill="none" xmlns="http://www.w3.org/2000/svg">
<g opacity="0.5">
<path d="M3.81713 3.00059C3.81713 2.67444 3.94917 2.38091 4.18025 2.1526C4.41132 1.92429 4.70841 1.79383 5.03852 1.79383H9.29686C9.62697 1.79383 9.92406 1.92429 10.1551 2.1526C10.3862 2.38091 10.5183 2.67444 10.5183 3.00059V6.00662C10.5183 6.50798 10.9247 6.91441 11.426 6.91441C11.9274 6.91441 12.3338 6.50798 12.3338 6.00662V3.00059C12.3338 2.18521 12.0037 1.40245 11.4425 0.880609C10.8814 0.326152 10.1221 0 9.29686 0H5.03852C4.21326 0 3.42101 0.326152 2.89284 0.880609C2.33166 1.43507 2.00156 2.18521 2.00156 3.00059V6.00662C2.00156 6.50798 2.40799 6.91441 2.90934 6.91441C3.4107 6.91441 3.81713 6.50798 3.81713 6.00662V3.00059Z" fill="black"/>
<path d="M13.5013 8.50298C13.1712 8.18869 12.709 8.00012 12.2139 8.00012H1.81557C1.32042 8.00012 0.858272 8.18869 0.528167 8.50298C0.198063 8.81727 0 9.25727 0 9.7287V12.3373C0 14.1916 0.792251 15.8573 2.04665 17.0516C3.30104 18.2459 5.08361 19.0002 6.99821 19.0002C8.94583 19.0002 10.6954 18.2459 11.9498 17.0516C13.2042 15.8573 13.9964 14.1601 13.9964 12.3373V9.7287C14.0294 9.25727 13.8314 8.81727 13.5013 8.50298ZM12.2139 12.3373C12.2139 13.6887 11.6197 14.9459 10.6954 15.8259C9.73808 16.7059 8.45067 17.2716 7.03122 17.2716C5.61177 17.2716 4.29136 16.7059 3.36706 15.8259C2.44277 14.9144 1.84858 13.6887 1.84858 12.3373V9.7287H12.2139V12.3373Z" fill="black"/>
<ellipse cx="7" cy="13.0017" rx="1" ry="1" fill="black"/>
</g>
</svg>
